#!OML:ASF F:\VICON\USERDATA\INSTALL\rory3\rory3.ASF
:FULLY-SPECIFIED
:DEGREES
634
root 3.99538 19.7953 7.23805 10.455 -2.35718 -8.52405
lowerback 2.32698 -2.76381 3.01784
upperback -5.54908 -3.32777 3.57194
thorax -7.0594 -1.70419 2.3334
lowerneck -8.30406 -12.689 -13.2665
upperneck 19.1616 -16.8712 6.51378
head 9.06642 -8.37638 2.34542
rclavicle 2.25496e-015 1.88845e-014
rhumerus -45.5146 10.4151 -79.2978
rradius 56.6485
rwrist 6.7093
rhand -23.896 -49.3565
rfingers 7.12502
rthumb 2.57781 -79.3207
lclavicle 2.25496e-015 1.88845e-014
lhumerus -45.6006 -28.1312 75.9129
lradius 74.7712
lwrist -4.24137
lhand -34.3847 -44.7469
lfingers 7.12502
lthumb -7.55092 -14.9017
rfemur -97.9179 -3.88348 22.4705
rtibia 133.93
rfoot -5.80629 -4.01413
rtoes -4.08845
lfemur -7.65101 -3.6058 -14.4477
ltibia 8.34896e-015
lfoot 29.727 0.543982
ltoes -14.3027
635
root 3.97223 19.923 7.23369 10.6982 -2.20358 -8.45616
lowerback 1.91468 -2.77755 3.12249
upperback -5.56329 -3.36384 3.53752
thorax -6.84362 -1.72981 2.21756
lowerneck -8.38525 -12.7398 -13.1842
upperneck 19.1886 -16.8634 6.15446
head 9.04895 -8.39617 2.21199
rclavicle 1.20498e-014 -2.5842e-015
rhumerus -45.5244 10.0691 -79.2327
rradius 56.1
rwrist 5.83225
rhand -23.6559 -50.2154
rfingers 7.12502
rthumb 2.80965 -80.1766
lclavicle 1.20498e-014 -2.5842e-015
lhumerus -45.8247 -28.4077 76.2684
lradius 74.561
lwrist -4.30924
lhand -33.7695 -45.6909
lfingers 7.12502
lthumb -6.95706 -15.8252
rfemur -98.4044 -4.62106 23.0082
rtibia 134.724
rfoot -5.64609 -3.56744
rtoes -3.5072
lfemur -7.86381 -3.62117 -14.4257
ltibia -2.38542e-015
lfoot 30.2166 1.66177
ltoes -13.2509
636
root 3.95567 20.0301 7.2255 10.9495 -2.052 -7.99481
lowerback 1.67126 -2.86185 2.86721
upperback -5.62535 -3.50764 3.42708
thorax -6.75694 -1.7916 2.24248
lowerneck -8.26027 -12.6859 -13.246
upperneck 18.9794 -16.7436 6.01194
head 8.93532 -8.36063 2.20509
rclavicle -5.79923e-014 5.56597e-015
rhumerus -45.5475 9.97578 -79.2516
rradius 55.5108
rwrist 5.54668
rhand -23.1578 -50.9323
rfingers 7.12502
rthumb 3.29068 -80.8866
lclavicle -5.79923e-014 5.56597e-015
lhumerus -46.0196 -28.6267 76.6638
lradius 74.1952
lwrist -4.42038
lhand -33.2913 -45.7738
lfingers 7.12502
lthumb -6.49545 -15.8934
rfemur -99.1483 -5.84816 23.1186
rtibia 135.655
rfoot -5.65459 -2.74573
rtoes -1.88048
lfemur -7.99702 -3.72839 -14.9007
ltibia 1.35174e-014
lfoot 30.3041 2.60959
ltoes -12.9429
637
root 3.94563 20.122 7.21304 11.1204 -1.84306 -7.73541
lowerback 1.58896 -2.97344 2.88784
upperback -5.61358 -3.66462 3.3618
thorax -6.70019 -1.87257 2.1688
lowerneck -8.29449 -12.6721 -13.2228
upperneck 18.6345 -16.6912 5.99796
head 8.81418 -8.33408 2.21102
rclavicle 3.73777e-014 6.16232e-015
rhumerus -45.4583 10.0382 -79.366
rradius 54.7741
rwrist 5.32388
rhand -23.9536 -49.8522
rfingers 7.12502
rthumb 2.52219 -79.817
lclavicle 3.73777e-014 6.16232e-015
lhumerus -46.1146 -28.8204 77.0749
lradius 73.7529
lwrist -4.4498
lhand -33.5278 -45.1865
lfingers 7.12502
lthumb -6.72377 -15.3133
rfemur -99.83 -6.88953 23.3947
rtibia 136.537
rfoot -5.84069 -2.0624
rtoes 0.222324
lfemur -7.98871 -3.86121 -15.1487
ltibia -1.43125e-014
lfoot 30.1872 3.37543
ltoes -12.7975
638
root 3.92909 20.1961 7.20965 11.223 -1.72662 -7.86677
lowerback 1.17864 -2.98514 3.23758
upperback -5.37216 -3.69355 3.36196
thorax -6.22991 -1.90453 1.93818
lowerneck -8.69279 -12.8084 -12.9689
upperneck 18.3934 -16.8126 5.8382
head 8.77608 -8.3753 2.08633
rclavicle -2.63384e-014 1.70955e-014
rhumerus -45.1064 9.84395 -79.4405
rradius 54.0059
rwrist 5.12742
rhand -25.0855 -48.559
rfingers 7.12502
rthumb 1.42901 -78.534
lclavicle -2.63384e-014 1.70955e-014
lhumerus -45.9262 -29.0719 77.3583
lradius 73.3132
lwrist -4.48076
lhand -33.7318 -45.4472
lfingers 7.12502
lthumb -6.92069 -15.5804
rfemur -100.247 -7.30752 24.2009
rtibia 137.35
rfoot -5.43028 -1.96108
rtoes -1.24442
lfemur -7.82741 -3.82536 -14.9731
ltibia -8.34896e-015
lfoot 30.0599 3.60869
ltoes -12.987
639
root 3.90514 20.2552 7.20291 11.3819 -1.80142 -7.82659
lowerback 1.32625 -2.99929 3.18524
upperback -5.66421 -3.69233 3.43639
thorax -6.61829 -1.90066 2.07008
lowerneck -8.60888 -12.7556 -12.9399
upperneck 18.6291 -16.6795 5.40767
head 8.7876 -8.35231 1.96292
rclavicle 3.23375e-014 -2.55438e-014
rhumerus -45.4781 9.81797 -79.4115
rradius 53.4712
rwrist 5.90037
rhand -23.9403 -49.1847
rfingers 7.12502
rthumb 2.535 -79.1493
lclavicle 3.23375e-014 -2.55438e-014
lhumerus -46.6468 -29.1345 78.1722
lradius 72.7413
lwrist -4.65036
lhand -33.5704 -45.9749
lfingers 7.12502
lthumb -6.76486 -16.103
rfemur -100.726 -7.61008 24.9037
rtibia 138.252
rfoot -5.29196 -1.83188
rtoes -2.73439
lfemur -7.68815 -3.63513 -15.0241
ltibia 1.98785e-015
lfoot 29.9949 2.94749
ltoes -13.7042
640
root 3.88793 20.3088 7.19144 11.4642 -1.73634 -7.51647
lowerback 1.42963 -3.05361 3.07757
upperback -5.8819 -3.76164 3.35395
thorax -6.90831 -1.93236 2.06755
lowerneck -8.13932 -12.6318 -13.2381
upperneck 18.5743 -16.5537 5.56311
head 8.71525 -8.31326 2.10423
rclavicle 6.80605e-014 3.57812e-015
rhumerus -45.7685 10.0005 -79.7208
rradius 52.7078
rwrist 4.97127
rhand -25.4069 -48.0664
rfingers 7.12502
rthumb 1.11856 -78.0433
lclavicle 6.80605e-014 3.57812e-015
lhumerus -47.1363 -29.315 78.9086
lradius 72.0119
lwrist -4.58283
lhand -33.6558 -45.5428
lfingers 7.12502
lthumb -6.8473 -15.6735
rfemur -101.014 -8.45222 25.2017
rtibia 139.123
rfoot -5.367 -1.19102
rtoes -1.86117
lfemur -7.47118 -3.65501 -15.3916
ltibia -2.10712e-014
lfoot 29.8167 2.18913
ltoes -12.807
641
root 3.876 20.3504 7.17681 11.4954 -1.53425 -7.1737
lowerback 1.6211 -3.16157 2.99224
upperback -6.02515 -3.90154 3.26103
thorax -7.17209 -1.99955 2.04964
lowerneck -7.84522 -12.5675 -13.4407
upperneck 18.4308 -16.5098 5.77735
head 8.64757 -8.29582 2.23
rclavicle 1.57646e-014 -3.97569e-016
rhumerus -45.7411 9.90035 -79.742
rradius 52.2797
rwrist 6.11857
rhand -23.0013 -51.3649
rfingers 7.12502
rthumb 3.44187 -81.3169
lclavicle 1.57646e-014 -3.97569e-016
lhumerus -47.571 -29.3391 79.5427
lradius 71.5037
lwrist -4.49139
lhand -33.679 -44.9113
lfingers 7.12502
lthumb -6.86972 -15.0428
rfemur -101.186 -9.49114 25.4702
rtibia 139.884
rfoot -5.8999 -0.754362
rtoes -3.12136
lfemur -7.20067 -3.82673 -15.8044
ltibia -1.90833e-014
lfoot 29.4246 1.90195
ltoes -10.6647
642
root 3.85278 20.3742 7.14773 11.6178 -1.7054 -7.02242
lowerback 1.96002 -3.1634 2.82114
upperback -6.23884 -3.89056 3.2559
thorax -7.5876 -1.98365 2.17382
lowerneck -7.76342 -12.5281 -13.3615
upperneck 18.5009 -16.4555 5.64
head 8.63209 -8.28034 2.18663
rclavicle -1.63081e-014 -1.51076e-014
rhumerus -45.8131 10.009 -79.9848
rradius 51.5629
rwrist 6.02185
rhand -23.2469 -52.0231
rfingers 7.12502
rthumb 3.2047 -81.9788
lclavicle -1.63081e-014 -1.51076e-014
lhumerus -48.0852 -29.1388 80.1246
lradius 71.0555
lwrist -4.59983
lhand -33.5284 -44.7244
lfingers 7.12502
lthumb -6.72431 -14.8511
rfemur -101.772 -9.27615 25.9951
rtibia 140.514
rfoot -5.40164 -0.808023
rtoes -3.27715
lfemur -7.06935 -3.57627 -16.0298
ltibia -7.95139e-015
lfoot 28.9202 1.5293
ltoes -9.0065
643
root 3.82547 20.3914 7.12563 11.6479 -2.06049 -7.05624
lowerback 2.35325 -3.12163 2.77374
upperback -6.41516 -3.81131 3.28309
thorax -8.00431 -1.9391 2.25941
lowerneck -7.57097 -12.4116 -13.4324
upperneck 18.5928 -16.341 5.74832
head 8.63369 -8.22879 2.25853
rclavicle -2.95102e-014 1.12313e-014
rhumerus -45.9282 10.196 -80.3278
rradius 50.7536
rwrist 5.63883
rhand -24.3946 -50.6169
rfingers 7.12502
rthumb 2.09627 -80.5864
lclavicle -2.95102e-014 1.12313e-014
lhumerus -48.5685 -28.968 80.6902
lradius 70.4237
lwrist -4.51771
lhand -33.3471 -44.8282
lfingers 7.12502
lthumb -6.54928 -14.9494
rfemur -102.049 -8.30141 26.5615
rtibia 140.947
rfoot -4.66464 -1.09525
rtoes -2.47728
lfemur -6.81015 -3.10814 -16.0717
ltibia -1.11319e-014
lfoot 28.2395 0.906114
ltoes -8.05761
644
root 3.80944 20.404 7.11798 11.5162 -2.16048 -6.99079
lowerback 2.59441 -3.13712 2.87664
upperback -6.30804 -3.82099 3.22112
thorax -8.04081 -1.95114 2.14889
lowerneck -8.01852 -12.3612 -13.4268
upperneck 18.863 -16.2658 5.91583
head 8.81184 -8.16585 2.28845
rclavicle -4.25912e-014 -1.81888e-014
rhumerus -45.6428 10.3172 -80.7166
rradius 49.8829
rwrist 4.87484
rhand -26.1473 -49.2273
rfingers 7.12502
rthumb 0.403472 -79.2066
lclavicle -4.25912e-014 -1.81888e-014
lhumerus -48.4575 -28.8218 80.995
lradius 69.6528
lwrist -4.29659
lhand -33.0262 -45.146
lfingers 7.12502
lthumb -6.23953 -15.2579
rfemur -101.747 -7.98753 26.8831
rtibia 141.32
rfoot -4.64519 -1.15467
rtoes -2.44176
lfemur -6.28913 -2.93449 -16.2428
ltibia 2.06736e-014
lfoot 27.2215 -0.124877
ltoes -8.40358
645
root 3.80762 20.4023 7.10246 11.3707 -2.02031 -6.66815
lowerback 2.84242 -3.21104 2.99627
upperback -6.21374 -3.91361 3.05449
thorax -8.1032 -2.00841 1.92876
lowerneck -8.58678 -12.3778 -13.4001
upperneck 19.2021 -16.2589 6.00063
head 9.03417 -8.13619 2.26986
rclavicle 3.2054e-014 1.11319e-014
rhumerus -45.5167 10.2472 -80.8982
rradius 49.4379
rwrist 5.18537
rhand -26.354 -49.8933
rfingers 7.12502
rthumb 0.203793 -79.873
lclavicle 3.2054e-014 1.11319e-014
lhumerus -48.3526 -28.6445 81.333
lradius 68.9374
lwrist -3.98862
lhand -32.889 -45.3475
lfingers 7.12502
lthumb -6.10708 -15.4555
rfemur -101.486 -8.57044 26.8649
rtibia 141.717
rfoot -5.04418 -0.785111
rtoes -2.46216
lfemur -8.78508 -3.02617 -16.7207
ltibia 5.59506
lfoot 23.4565 -0.872316
ltoes -8.9647
646
root 3.78081 20.389 7.0907 11.2978 -2.3432 -6.85082
lowerback 3.08456 -3.13743 3.12678
upperback -6.29191 -3.78485 3.13708
thorax -8.33537 -1.94951 1.95215
lowerneck -8.62263 -12.3588 -13.5763
upperneck 19.3194 -16.2394 6.13597
head 9.10741 -8.12603 2.33658
rclavicle 1.4502e-014 -1.92821e-014
rhumerus -45.8936 10.0569 -80.7912
rradius 49.5508
rwrist 7.19439
rhand -23.6668 -52.3091
rfingers 7.12502
rthumb 2.79919 -82.2704
lclavicle 1.4502e-014 -1.92821e-014
lhumerus -48.8134 -28.3208 81.9244
lradius 68.3812
lwrist -3.63067
lhand -32.9317 -44.6551
lfingers 7.12502
lthumb -6.14829 -14.7643
rfemur -101.249 -7.41637 27.5028
rtibia 141.883
rfoot -4.91344 -1.39382
rtoes -2.06357
lfemur -9.79498 -2.54512 -16.594
ltibia 8.35296
lfoot 21.1194 -1.52261
ltoes -8.7064
647
root 3.76054 20.3646 7.07394 11.289 -2.6966 -6.86809
lowerback 3.351 -3.04949 3.17829
upperback -6.3753 -3.64529 3.1475
thorax -8.58699 -1.88305 1.94305
lowerneck -8.27043 -12.2921 -13.4867
upperneck 19.0988 -16.1608 5.99199
head 8.93905 -8.1071 2.31609
rclavicle 3.79818e-014 6.06293e-015
rhumerus -46.0759 10.1479 -81.1447
rradius 48.8297
rwrist 5.96486
rhand -26.5719 -50.4975
rfingers 7.12502
rthumb -0.00662354 -80.4772
lclavicle 3.79818e-014 6.06293e-015
lhumerus -49.0616 -27.976 82.3777
lradius 67.7678
lwrist -3.49509
lhand -32.7306 -43.9565
lfingers 7.12502
lthumb -5.95416 -14.0602
rfemur -101.151 -6.24537 27.9215
rtibia 141.977
rfoot -4.65735 -1.9865
rtoes -2.11213
lfemur -10.5503 -2.0761 -16.6818
ltibia 10.4369
lfoot 19.1021 -2.06503
ltoes -9.4479
648
root 3.74503 20.328 7.05949 11.3928 -3.05877 -6.76072
lowerback 3.38984 -2.93148 3.18923
upperback -6.43088 -3.48467 3.10654
thorax -8.67446 -1.80659 1.88189
lowerneck -8.43031 -12.2941 -13.346
upperneck 19.2114 -16.1122 5.72311
head 8.96532 -8.09426 2.20344
rclavicle 1.44492e-014 9.83984e-015
rhumerus -45.9788 9.90927 -81.1999
rradius 48.1872
rwrist 6.06779
rhand -26.4635 -50.4122
rfingers 7.12502
rthumb 0.0981011 -80.3919
lclavicle 1.44492e-014 9.83984e-015
lhumerus -49.1039 -27.6996 82.7713
lradius 67.0479
lwrist -3.21469
lhand -31.9429 -44.0787
lfingers 7.12502
lthumb -5.19358 -14.1623
rfemur -101.201 -5.18896 28.1278
rtibia 142
rfoot -4.0499 -2.40103
rtoes -1.10573
lfemur -11.1967 -1.82859 -16.8978
ltibia 11.9613
lfoot 17.2871 -2.55
ltoes -11.4286
